<svg height="512pt" viewBox="0 -2 512 511" width="512pt" xmlns="http://www.w3.org/2000/svg"><path d="m184.574219 323.511719c-76.992188 0-139.628907-62.636719-139.628907-139.628907 0-76.992187 62.636719-139.625 139.628907-139.625 76.992187 0 139.628906 62.636719 139.628906 139.625 0 76.992188-62.636719 139.628907-139.628906 139.628907zm0 0" fill="#f0f0fa"/><path d="m184.574219 9.347656c-96.394531 0-174.535157 78.144532-174.535157 174.535156 0 96.394532 78.140626 174.535157 174.535157 174.535157 96.390625 0 174.535156-78.140625 174.535156-174.535157 0-96.390624-78.140625-174.535156-174.535156-174.535156zm0 314.164063c-76.992188 0-139.628907-62.636719-139.628907-139.628907 0-76.992187 62.636719-139.625 139.628907-139.625 76.992187 0 139.628906 62.636719 139.628906 139.625 0 76.992188-62.636719 139.628907-139.628906 139.628907zm0 0" fill="#4bb9f5"/><path d="m493.726562 448.886719-130.886718-131.335938c-11.242188 15.109375-24.597656 28.550781-39.628906 39.894531l130.753906 131.203126c5.488281 5.488281 12.6875 8.234374 19.882812 8.234374 7.195313 0 14.390625-2.746093 19.878906-8.234374 10.980469-10.980469 10.980469-28.78125 0-39.761719zm0 0" fill="#6289fa"/><path d="m500.835938 442.988281-130.886719-131.335937c-2.058594-2.066406-4.917969-3.132813-7.832031-2.925782-2.910157.210938-5.589844 1.679688-7.332032 4.019532-3.363281 4.515625-6.941406 8.855468-10.683594 13.042968l-20.003906-20.003906c28.054688-32.386718 45.050782-74.601562 45.050782-120.710937 0-101.773438-82.800782-184.574219-184.574219-184.574219-101.777344 0-184.574219 82.800781-184.574219 184.574219 0 101.773437 82.800781 184.574219 184.574219 184.574219 48.453125 0 92.597656-18.777344 125.5625-49.425782l19.804687 19.804688c-4.101562 3.707031-8.351562 7.253906-12.777344 10.597656-2.316406 1.746094-3.761718 4.410156-3.964843 7.304688-.203125 2.898437.855469 5.738281 2.902343 7.792968l130.765626 131.214844c7.207031 7.203125 16.789062 11.171875 26.980468 11.171875 10.1875 0 19.769532-3.964844 26.980469-11.171875 7.203125-7.207031 11.171875-16.789062 11.171875-26.980469 0-10.1875-3.964844-19.761719-11.164062-26.96875zm-480.757813-257.914062c0-90.703125 73.792969-164.496094 164.496094-164.496094 90.707031 0 164.496093 73.792969 164.496093 164.496094s-73.792968 164.496093-164.496093 164.496093-164.496094-73.792968-164.496094-164.496093zm466.550781 297.664062c-3.414062 3.414063-7.957031 5.292969-12.78125 5.292969-4.828125 0-9.367187-1.878906-12.769531-5.28125l-122.847656-123.265625c9.222656-7.796875 17.75-16.375 25.484375-25.644531l122.914062 123.335937c3.414063 3.414063 5.292969 7.953125 5.292969 12.78125s-1.878906 9.367188-5.292969 12.78125zm0 0"/><path d="m184.574219 35.40625c-82.527344 0-149.667969 67.140625-149.667969 149.667969 0 82.527343 67.140625 149.667969 149.667969 149.667969 82.527343 0 149.667969-67.140626 149.667969-149.667969 0-82.527344-67.140626-149.667969-149.667969-149.667969zm0 279.257812c-71.457031 0-129.589844-58.132812-129.589844-129.589843s58.132813-129.589844 129.589844-129.589844 129.589843 58.132813 129.589843 129.589844-58.136718 129.589843-129.589843 129.589843zm0 0"/><path d="m141.300781 84.476562c-40.238281 17.371094-66.238281 56.855469-66.238281 100.597657 0 5.542969 4.496094 10.039062 10.039062 10.039062 5.542969 0 10.039063-4.496093 10.039063-10.039062 0-35.722657 21.242187-67.972657 54.117187-82.164063 5.089844-2.195312 7.433594-8.105468 5.238282-13.195312-2.195313-5.089844-8.105469-7.433594-13.195313-5.238282zm0 0"/><path d="m193.847656 81.761719c-1.65625-4.003907-5.84375-6.550781-10.167968-6.160157-4.15625.378907-7.710938 3.375-8.796876 7.398438-1.074218 3.980469.472657 8.371094 3.84375 10.765625 3.433594 2.433594 8.082032 2.46875 11.550782.09375 3.863281-2.648437 5.347656-7.792969 3.570312-12.097656zm0 0"/></svg>